<svg width="158" height="158" viewBox="0 0 158 158" fill="none" xmlns="http://www.w3.org/2000/svg">
<path d="M11.2832 136.487L0 157.718L0.28208 42.0393C0.28208 18.7978 19.0404 0 42.312 0H157.683C124.891 10.1924 90.7239 33.2223 68.1576 59.4616C43.264 88.1696 29.1247 107.92 11.2832 136.487ZM157.965 0C157.965 0 107.613 23.5589 92.2401 58.9326C84.0598 77.8362 82.05 100.584 67.2055 114.867C57.0154 124.672 42.5941 128.34 30.0768 134.723C21.8965 138.955 6.66414 149.007 0.14104 158H115.935C139.206 158 158 139.202 158 115.961C157.965 115.961 157.965 0 157.965 0Z" fill="#00FF85"/>
</svg>
